C:\Users\r0593348\3dpredictsim\Results\Batchsim_tmt_linear\Pog_s1_tmt_bCst_d02_k1000_ig24_pas_GRF.mot
nRows=12
nColumns=19

name C:\Users\r0593348\3dpredictsim\Results\Batchsim_tmt_linear\Pog_s1_tmt_bCst_d02_k1000_ig24_pas_GRF.mot
datacolumns 19
datarows 12
range 0.5505036035 0.6716143963
endheader
time 	ground_force_vx	ground_force_vy	ground_force_vz	ground_force_px	ground_force_py	ground_force_pz	1_ground_force_vx	1_ground_force_vy	1_ground_force_vz	1_ground_force_px	1_ground_force_py	1_ground_force_pz	ground_torque_x	ground_torque_y	ground_torque_z	1_ground_torque_x	1_ground_torque_y	1_ground_torque_z
        0.5505036035	      101.1198763696	      526.8831287482	        3.1851294239	        0.3780462659	        0.0000000000	        0.0359525851	      -75.9942077671	       61.2325009205	      -27.1163839866	        0.8602821452	        0.0000000000	       -0.0387420692	        0.0000000000	        0.0000000000	        0.0000000000	        0.0000000000	        0.0000000000	        0.0000000000	
        0.5615136756	       85.3432818405	      450.4594164480	        7.2921710306	        0.3811225091	        0.0000000000	        0.0352081064	     -118.6443656464	      133.6462921262	      -68.8133700956	        0.8679849279	        0.0000000000	       -0.0364042668	        0.0000000000	        0.0000000000	        0.0000000000	        0.0000000000	        0.0000000000	        0.0000000000	
        0.5725237476	       69.2118835226	      365.5722051425	        9.0430386904	        0.3857181652	        0.0000000000	        0.0337461449	      -45.8630297826	      263.6195331817	      -34.7244481130	        0.8737032671	        0.0000000000	       -0.0339665818	        0.0000000000	        0.0000000000	        0.0000000000	        0.0000000000	        0.0000000000	        0.0000000000	
        0.5835338197	       47.9261189960	      274.2891457345	        5.5375917574	        0.3930901674	        0.0000000000	        0.0307981015	      -38.0708716914	      408.6905504867	       -5.6509195070	        0.8769431910	        0.0000000000	       -0.0336856644	        0.0000000000	        0.0000000000	        0.0000000000	        0.0000000000	        0.0000000000	        0.0000000000	
        0.5945438918	       22.3628715442	      179.5378495304	        7.0006311559	        0.4068004280	        0.0000000000	        0.0246221112	      -66.5963249212	      583.5970574160	        3.9083889094	        0.8844117492	        0.0000000000	       -0.0358545759	        0.0000000000	        0.0000000000	        0.0000000000	        0.0000000000	        0.0000000000	        0.0000000000	
        0.6055539639	        4.9737664328	      134.1411609146	       11.9328788189	        0.4157796618	        0.0000000000	        0.0199887056	      -93.7921822163	      731.5870059205	        9.9345159871	        0.8912614219	        0.0000000000	       -0.0379185129	        0.0000000000	        0.0000000000	        0.0000000000	        0.0000000000	        0.0000000000	        0.0000000000	
        0.6165640359	        2.0178682893	      103.2545926322	       12.5277564584	        0.4162044276	        0.0000000000	        0.0201009570	     -106.3679166766	      807.2555560544	       11.7786616106	        0.8959285996	        0.0000000000	       -0.0392084530	        0.0000000000	        0.0000000000	        0.0000000000	        0.0000000000	        0.0000000000	        0.0000000000	
        0.6275741080	       -2.0230622783	       66.9942786084	       11.4914968358	        0.4166743418	        0.0000000000	        0.0201515506	     -105.7189722737	      825.0989903721	       12.3508893225	        0.8993149610	        0.0000000000	       -0.0399898263	        0.0000000000	        0.0000000000	        0.0000000000	        0.0000000000	        0.0000000000	        0.0000000000	
        0.6385841801	       -7.9090359114	       27.3516443240	        5.8062347932	        0.4163176451	        0.0000000000	        0.0198698389	      -99.1456770209	      814.7980181030	       12.6045310032	        0.9022915990	        0.0000000000	       -0.0404451724	        0.0000000000	        0.0000000000	        0.0000000000	        0.0000000000	        0.0000000000	        0.0000000000	
        0.6495942521	        0.0990566970	       -0.0981326442	       -0.0025520748	        0.0000000000	        0.0000000000	        0.0000000000	      -89.9023654123	      797.2271242335	       13.3440736403	        0.9054708009	        0.0000000000	       -0.0406668953	        0.0000000000	        0.0000000000	        0.0000000000	        0.0000000000	        0.0000000000	        0.0000000000	
        0.6606043242	        0.0001397114	       -0.0001134601	        0.0000075364	        0.0000000000	        0.0000000000	        0.0000000000	      -78.3042266386	      771.3753973415	       14.2835360441	        0.9087899736	        0.0000000000	       -0.0407710297	        0.0000000000	        0.0000000000	        0.0000000000	        0.0000000000	        0.0000000000	        0.0000000000	
        0.6716143963	        0.0000513300	       -0.0000362212	        0.0000037106	        0.0000000000	        0.0000000000	        0.0000000000	      -68.1550061656	      743.1305172979	       14.8030332087	        0.9127967590	        0.0000000000	       -0.0407830210	        0.0000000000	        0.0000000000	        0.0000000000	        0.0000000000	        0.0000000000	        0.0000000000	
